<svg width="18" height="19" viewBox="0 0 18 19" fill="none" xmlns="http://www.w3.org/2000/svg">
<g clip-path="url(#clip0_114_2444)">
<path d="M17.8245 7.49137H17.1V7.45537H9V11.0554H14.085C13.3425 13.1524 11.349 14.6554 9 14.6554C6.0165 14.6554 3.6 12.2389 3.6 9.25537C3.6 6.27187 6.0165 3.85537 9 3.85537C10.377 3.85537 11.628 4.37287 12.582 5.22337L15.129 2.67637C13.5225 1.17787 11.3715 0.255371 9 0.255371C4.0275 0.255371 0 4.28287 0 9.25537C0 14.2279 4.0275 18.2554 9 18.2554C13.9725 18.2554 18 14.2234 18 9.25537C18 8.65237 17.937 8.06287 17.8245 7.49137Z" fill="#FFC107"/>
<path d="M1.03955 5.06587L3.99605 7.23487C4.79705 5.25487 6.73205 3.85537 9.00005 3.85537C10.3771 3.85537 11.6281 4.37287 12.5821 5.22337L15.1291 2.67637C13.5226 1.17787 11.3716 0.255371 9.00005 0.255371C5.54405 0.255371 2.54705 2.20837 1.03955 5.06587Z" fill="#FF3D00"/>
<path d="M9.00023 18.2554C11.3267 18.2554 13.4372 17.3644 15.0347 15.9199L12.2492 13.5619C11.3447 14.2459 10.2242 14.6554 9.00023 14.6554C6.66023 14.6554 4.67123 13.1614 3.92423 11.0779L0.990234 13.3414C2.47973 16.2574 5.50373 18.2554 9.00023 18.2554Z" fill="#4CAF50"/>
<path d="M17.8245 7.49132H17.1V7.45532H9V11.0553H14.085C13.7295 12.0633 13.0815 12.9318 12.2445 13.5618L15.03 15.9198C14.832 16.0998 17.9955 13.7553 17.9955 9.25532C17.9955 8.65232 17.9325 8.06282 17.82 7.49132H17.8245Z" fill="#1976D2"/>
</g>
<defs>
<clipPath id="clip0_114_2444">
<rect width="18" height="18" fill="white" transform="translate(0 0.255371)"/>
</clipPath>
</defs>
</svg>
