<svg width="24" height="24" viewBox="0 0 24 24" fill="none" xmlns="http://www.w3.org/2000/svg">
<rect width="24" height="24" rx="7" fill="white"/>
<path d="M10.7805 18.7188C10.8748 18.4684 10.9198 18.2011 10.9128 17.9325C10.9271 17.1882 11.12 16.4592 11.4742 15.8105C11.8275 15.1629 12.3314 14.616 12.9404 14.219C13.166 14.0943 13.3646 13.9236 13.5243 13.7174C13.684 13.5113 13.8016 13.2738 13.8697 13.0194C13.9379 12.7651 13.9553 12.4991 13.9209 12.2376C13.8865 11.9761 13.8011 11.7245 13.6697 11.498C13.4941 11.1955 13.2415 10.9475 12.9404 10.7825C12.7678 10.659 12.602 10.526 12.4439 10.3835L12.0478 9.9835C11.3219 9.1966 10.9149 8.15354 10.9098 7.0675C10.9173 6.79888 10.8726 6.53144 10.7783 6.28094C10.6839 6.03045 10.5419 5.80197 10.3605 5.609C10.18 5.41624 9.9636 5.26297 9.72435 5.15834C9.4851 5.05371 9.22786 4.99986 8.96798 5C8.70825 5.00038 8.45124 5.05447 8.21214 5.15907C7.97304 5.26368 7.75671 5.41667 7.57595 5.609C7.39491 5.80231 7.25308 6.03092 7.15876 6.28144C7.06443 6.53195 7.0195 6.79936 7.0266 7.068C7.03084 7.41672 7.12398 7.75815 7.29667 8.058C7.46877 8.35734 7.71447 8.60451 8.00893 8.7745C9.2012 9.5525 10.0308 11.04 10.0308 12.503C10.0279 13.5796 9.62857 14.6149 8.91368 15.3995L8.01184 16.2255C7.71753 16.395 7.47171 16.642 7.29909 16.942C7.126 17.2415 7.03339 17.5835 7.02903 17.9325C7.02161 18.2011 7.06639 18.4685 7.16074 18.719C7.25509 18.9695 7.39708 19.198 7.57837 19.391C7.75895 19.5837 7.97532 19.7369 8.21456 19.8416C8.4538 19.9462 8.71102 20.0001 8.97089 20C9.2307 19.9997 9.48781 19.9456 9.727 19.841C9.96619 19.7364 10.1826 19.5834 10.3634 19.391C10.5444 19.1977 10.6861 18.9692 10.7805 18.7188Z" fill="#8DA2FB"/>
<path d="M13.4141 8.18C13.2003 7.849 13.0864 7.4595 13.0864 7.0615C13.0867 6.52836 13.2915 6.017 13.6561 5.639C13.9731 5.31012 14.3912 5.10525 14.8387 5.05954C15.2862 5.01384 15.7351 5.13014 16.1085 5.3885C16.4284 5.60995 16.6774 5.92418 16.8242 6.2915C16.971 6.65924 17.0093 7.06346 16.9343 7.45355C16.8594 7.84364 16.6745 8.20226 16.4028 8.4845C16.132 8.76596 15.786 8.95781 15.4089 9.03556C15.0319 9.11331 14.6409 9.07342 14.2859 8.921C13.9306 8.76843 13.6272 8.51054 13.4141 8.18Z" fill="#8DA2FB"/>
<path d="M13.9499 16.259C14.2694 16.038 14.6452 15.92 15.0292 15.92V15.919C15.2845 15.9193 15.5372 15.9716 15.7728 16.0728C16.0084 16.1741 16.2224 16.3223 16.4023 16.509C16.7204 16.8389 16.9182 17.272 16.9624 17.735C17.0065 18.198 16.8944 18.6625 16.6448 19.05C16.4317 19.381 16.1281 19.6392 15.7725 19.792C15.4175 19.9444 15.0266 19.9843 14.6495 19.9066C14.2725 19.8288 13.9264 19.637 13.6556 19.3555C13.3838 19.0732 13.1989 18.7145 13.124 18.3243C13.049 17.9341 13.0874 17.5298 13.2343 17.162C13.3811 16.7947 13.6301 16.4805 13.9499 16.259Z" fill="#8DA2FB"/>
<path d="M19.6727 11.379C19.886 11.7099 19.9999 12.0987 20 12.4966C19.9997 13.0298 19.7949 13.5413 19.4303 13.9195C19.2503 14.1061 19.0363 14.2543 18.8007 14.3555C18.5651 14.4568 18.3124 14.5091 18.0572 14.5095C17.6727 14.5095 17.297 14.3915 16.9779 14.1705C16.658 13.949 16.409 13.6348 16.2622 13.2675C16.1153 12.8997 16.077 12.4954 16.1519 12.1052C16.2269 11.715 16.4118 11.3563 16.6836 11.074C16.9544 10.7924 17.3006 10.6005 17.6777 10.5228C18.0548 10.445 18.4459 10.485 18.8009 10.6375C19.1563 10.7902 19.4597 11.0483 19.6727 11.379Z" fill="#8DA2FB"/>
<path d="M4.86318 10.8235C5.1827 10.6025 5.55798 10.4845 5.94248 10.4845C6.19768 10.4851 6.45027 10.5375 6.6858 10.6388C6.92134 10.7401 7.13518 10.8884 7.31511 11.075C7.63299 11.4048 7.83072 11.8377 7.87489 12.3005C7.91906 12.7633 7.80697 13.2276 7.55754 13.615C7.34453 13.9457 7.04112 14.2038 6.68577 14.3565C6.33067 14.5082 5.93989 14.5477 5.563 14.47C5.18611 14.3922 4.8401 14.2008 4.56887 13.92C4.2972 13.6378 4.11232 13.2791 4.03737 12.889C3.96242 12.499 4.00074 12.0947 4.14752 11.727C4.29424 11.3595 4.54328 11.0451 4.86318 10.8235Z" fill="#8DA2FB"/>
</svg>
